<?xml version="1.0" encoding="UTF-8" standalone="no"?>
<!-- Created with Inkscape (http://www.inkscape.org/) -->

<svg
   xmlns:dc="http://purl.org/dc/elements/1.1/"
   xmlns:cc="http://creativecommons.org/ns#"
   xmlns:rdf="http://www.w3.org/1999/02/22-rdf-syntax-ns#"
   xmlns:svg="http://www.w3.org/2000/svg"
   xmlns="http://www.w3.org/2000/svg"
   xmlns:sodipodi="http://sodipodi.sourceforge.net/DTD/sodipodi-0.dtd"
   xmlns:inkscape="http://www.inkscape.org/namespaces/inkscape"
   id="svg2"
   sodipodi:docname="hand.svg"
   height="297mm"
   width="210mm"
   version="1.1"
   inkscape:version="0.48.5 r10040">
  <defs
     id="defs4666" />
  <sodipodi:namedview
     id="base"
     bordercolor="#666666"
     inkscape:pageshadow="2"
     inkscape:window-y="27"
     pagecolor="#ffffff"
     inkscape:window-height="1014"
     inkscape:window-maximized="1"
     inkscape:zoom="1.0395408"
     inkscape:window-x="0"
     showgrid="false"
     borderopacity="1.0"
     inkscape:current-layer="layer1"
     inkscape:cx="581.71293"
     inkscape:cy="697.31185"
     inkscape:window-width="1920"
     inkscape:pageopacity="0.0"
     inkscape:document-units="px" />
  <g
     id="layer1"
     inkscape:label="Camada 1"
     inkscape:groupmode="layer">
    <g
       transform="translate(97.7931,16.431)"
       id="g3922">
      <path
         inkscape:connector-curvature="0"
         d="m 218.35958,153.88031 c -22.29242,1.0602 -32.13958,11.24647 -32.13958,29.23747 -5e-5,0.0208 -5e-5,0.0417 0,0.0625 l 1.03,111.94422 -16.53,-43.24 c -0.44607,-1.18134 -1.0581,-2.29987 -1.8125,-3.3125 -6.507,-8.6409 -15.038,-14.587 -24,-16.062 -8.9619,-1.4755 -16.313,0.61076 -23.406,2.375 -10.755,2.6751 -16.926,11.787 -19.375,20.375 -2.327,8.1614 -2.0301,16.97 1.0938,25.5 l -0.0312,0 35.906,125.75 c 0.28936,1.02239 0.69937,2.01057 1.2188,2.9375 l 60.312,107.16 14.562,49 c 1.66766,5.59047 7.29134,9.74129 13.125,9.6875 l 138.34,-1.125 c 6.1361,-0.0577 11.91054,-4.80335 13.156,-10.812 l 37.656,-181 c 0.047,-0.21768 0.0887,-0.43652 0.125,-0.65625 1.8635,-11.858 1.201,-31.792 0.75,-52.344 -0.22553,-10.276 -0.51311,-20.226 -0.71875,-27.938 -0.20564,-7.712 -0.152,-14.965 -0.25,-13.531 0.0212,-0.31202 0.0316,-0.62476 0.0312,-0.9375 l 0,-60.656 c 0.003,-0.98664 -0.10193,-1.97358 -0.3125,-2.9375 -1.6386,-7.3818 -3.9326,-14.329 -9.1875,-20.406 -4.884,-5.6481 -13.497,-9.2055 -21.594,-8.75 l 0,-0.125 c -0.37176,0 -0.72391,0.11088 -1.0938,0.125 -0.24831,0.0258 -0.50323,-0.0341 -0.75,0 l 0,0.0937 c -5.6518,0.36266 -10.969,2.2909 -15.344,5.3125 l 0,-4 c 0,-18.002 -16.138,-30.938 -33.531,-30.938 l -0.0937,0 c -9.9235,0 -19.322,4.3178 -25.656,11.281 l 0,-18.219 c 2e-5,-17.972 -16.15126,-30.08841 -33.5,-30.906 -25.86702,-1.21903 -31.74356,18.18581 -31.31853,30.11646 0.42503,11.93065 -4.36932,-4.1223 -26.66174,-3.0621 z"
         style="color:#000000;fill:#000000;stroke:#000000;stroke-width:1.14900005"
         id="path3917"
         sodipodi:nodetypes="zccccccsccccccccccccssccccsccccccssscsszz" />
      <path
         inkscape:connector-curvature="0"
         d="m 219.71,167.10489 c -11.033,0 -19.927,7.7413 -19.927,17.367 l 1.1873,142.05411 c -0.31181,8.2138 -12.535,9.6701 -14.838,3.6616 l -28.057,-73.463 c -10.454,-13.883 -19.379,-12.144 -33.279,-8.6871 -9.4454,2.3493 -13.357,17.108 -8.5584,28.995 l 35.883,125.75 61.065,108.5 15.016,50.446 138.33,-1.1261 37.676,-181.02 c 2.4804,-15.784 -0.76979,-86.542 -0.35134,-92.663 l 0,-60.641 c -2.7552,-12.412 -7.9218,-20.001 -17.548,-18.672 -11.053,0 -16.731,9.0458 -16.731,18.672 l 0,60.02 c 1.9293,8.1364 -14.734,10.256 -14.022,-0.0407 l 0,-90.657 c 0,-9.6259 -8.9048,-17.381 -19.958,-17.381 l -0.0935,0 c -11.053,0 -19.942,7.7548 -19.942,17.381 l 0,72.806 c 2.0148,8.8009 -19.738,11.375 -19.257,-0.0408 l 0,-110.64 c 10e-6,-9.6259 -8.9048,-17.367 -19.958,-17.367 -11.0532,0 -19.958,7.7413 -19.958,17.367 l 0,116.3 c 0.87313,8.0681 -16.322,10.101 -16.764,-0.0271 l 0,-89.53411 c -1e-5,-9.6259 -8.8778,-17.367 -19.911,-17.367 l 0,-2e-5 0,1e-5 -1e-5,5e-5 6e-5,0 z"
         style="color:#000000;fill:#ffffff;stroke:#000000;stroke-width:0.53456998"
         sodipodi:nodetypes="cccccscccccccccccccccccccscccccccccc"
         id="rect3906" />
    </g>
  </g>
  <metadata
     id="metadata4664">
    <rdf:RDF>
      <cc:Work>
        <dc:format>image/svg+xml</dc:format>
        <dc:type
           rdf:resource="http://purl.org/dc/dcmitype/StillImage" />
        <cc:license
           rdf:resource="http://creativecommons.org/licenses/publicdomain/" />
        <dc:publisher>
          <cc:Agent
             rdf:about="http://openclipart.org/">
            <dc:title>Openclipart</dc:title>
          </cc:Agent>
        </dc:publisher>
        <dc:title></dc:title>
        <dc:date>2010-05-04T21:38:36</dc:date>
        <dc:description>hand cursor</dc:description>
        <dc:source>https://openclipart.org/detail/58705/hand-by-voyeg3r</dc:source>
        <dc:creator>
          <cc:Agent>
            <dc:title>voyeg3r</dc:title>
          </cc:Agent>
        </dc:creator>
        <dc:subject>
          <rdf:Bag>
            <rdf:li>computer</rdf:li>
            <rdf:li>cursor</rdf:li>
            <rdf:li>hand</rdf:li>
            <rdf:li>mouse</rdf:li>
          </rdf:Bag>
        </dc:subject>
      </cc:Work>
      <cc:License
         rdf:about="http://creativecommons.org/licenses/publicdomain/">
        <cc:permits
           rdf:resource="http://creativecommons.org/ns#Reproduction" />
        <cc:permits
           rdf:resource="http://creativecommons.org/ns#Distribution" />
        <cc:permits
           rdf:resource="http://creativecommons.org/ns#DerivativeWorks" />
      </cc:License>
    </rdf:RDF>
  </metadata>
</svg>
