<?xml version="1.0" encoding="UTF-8" standalone="no"?>
<!-- Created with Inkscape (http://www.inkscape.org/) -->

<svg
   xmlns:osb="http://www.openswatchbook.org/uri/2009/osb"
   xmlns:dc="http://purl.org/dc/elements/1.1/"
   xmlns:cc="http://creativecommons.org/ns#"
   xmlns:rdf="http://www.w3.org/1999/02/22-rdf-syntax-ns#"
   xmlns:svg="http://www.w3.org/2000/svg"
   xmlns="http://www.w3.org/2000/svg"
   xmlns:sodipodi="http://sodipodi.sourceforge.net/DTD/sodipodi-0.dtd"
   xmlns:inkscape="http://www.inkscape.org/namespaces/inkscape"
   width="744.09448819"
   height="1052.3622047"
   id="svg4664"
   version="1.1"
   inkscape:version="0.48.5 r10040"
   sodipodi:docname="library.svg">
  <defs
     id="defs4666">
    <linearGradient
       id="linearGradient4394"
       osb:paint="solid">
      <stop
         style="stop-color:#ff6868;stop-opacity:1;"
         offset="0"
         id="stop4396" />
    </linearGradient>
  </defs>
  <sodipodi:namedview
     id="base"
     pagecolor="#ffffff"
     bordercolor="#666666"
     borderopacity="1.0"
     inkscape:pageopacity="0.0"
     inkscape:pageshadow="2"
     inkscape:zoom="2.8"
     inkscape:cx="343.19904"
     inkscape:cy="603.06158"
     inkscape:document-units="px"
     inkscape:current-layer="layer1"
     showgrid="false"
     inkscape:window-width="1920"
     inkscape:window-height="1014"
     inkscape:window-x="0"
     inkscape:window-y="27"
     inkscape:window-maximized="1" />
  <metadata
     id="metadata4669">
    <rdf:RDF>
      <cc:Work
         rdf:about="">
        <dc:format>image/svg+xml</dc:format>
        <dc:type
           rdf:resource="http://purl.org/dc/dcmitype/StillImage" />
        <dc:title />
      </cc:Work>
    </rdf:RDF>
  </metadata>
  <g
     inkscape:label="Layer 1"
     inkscape:groupmode="layer"
     id="layer1">
    <path
       style="fill:none;stroke:#000000;stroke-width:15;stroke-linejoin:miter;stroke-miterlimit:4;stroke-opacity:1;display:inline"
       d="m 191.3591,481.39912 c 0,4.67706 3.76529,8.44235 8.44235,8.44235 l 205.82568,0 c 4.67706,0 8.44234,-3.76529 8.44234,-8.44235 l 0,-292.50245 c 0,-4.67706 -3.76528,-8.44235 -8.44234,-8.44235"
       id="rect5496-0-2-4-8-8-5-2-9"
       inkscape:connector-curvature="0"
       sodipodi:nodetypes="cssssc" />
    <path
       style="fill:none;stroke:#3f3f3f;stroke-width:15;stroke-linejoin:miter;stroke-miterlimit:4;stroke-opacity:1;display:inline"
       d="m 187.3591,477.82769 c 0,4.67706 3.76529,8.44235 8.44235,8.44235 l 205.82568,0 c 4.67706,0 8.44234,-3.76529 8.44234,-8.44235 l 0,-292.50245 c 0,-4.67706 -3.76528,-8.44235 -8.44234,-8.44235"
       id="rect5496-0-2-4-8-8-8-5"
       inkscape:connector-curvature="0"
       sodipodi:nodetypes="cssssc" />
    <path
       style="fill:none;stroke:#000000;stroke-width:15;stroke-linejoin:miter;stroke-miterlimit:4;stroke-opacity:1;display:inline"
       d="m 183.09163,474.08027 c 0,4.67706 3.76529,8.44235 8.44235,8.44235 l 205.82568,0 c 4.67706,0 8.44234,-3.76529 8.44234,-8.44235 l 0,-292.50245 c 0,-4.67706 -3.76528,-8.44235 -8.44234,-8.44235"
       id="rect5496-0-2-4-8-8-5-2"
       inkscape:connector-curvature="0"
       sodipodi:nodetypes="cssssc" />
    <path
       style="fill:none;stroke:#3f3f3f;stroke-width:15;stroke-linejoin:miter;stroke-miterlimit:4;stroke-opacity:1;display:inline"
       d="m 179.56874,469.78834 c 0,4.67706 3.76529,8.44235 8.44235,8.44235 l 205.82568,0 c 4.67706,0 8.44234,-3.76529 8.44234,-8.44235 l 0,-292.50245 c 0,-4.67706 -3.76528,-8.44235 -8.44234,-8.44235"
       id="rect5496-0-2-4-8-8-8"
       inkscape:connector-curvature="0"
       sodipodi:nodetypes="cssssc" />
    <path
       style="fill:none;stroke:#000000;stroke-width:15;stroke-linejoin:miter;stroke-miterlimit:4;stroke-opacity:1;display:inline"
       d="m 176.53829,464.73759 c 0,4.67706 3.76529,8.44235 8.44235,8.44235 l 205.82568,0 c 4.67706,0 8.44234,-3.76529 8.44234,-8.44235 l 0,-292.50245 c 0,-4.67706 -3.76528,-8.44235 -8.44234,-8.44235"
       id="rect5496-0-2-4-8-8-5"
       inkscape:connector-curvature="0"
       sodipodi:nodetypes="cssssc" />
    <path
       style="fill:none;stroke:#3f3f3f;stroke-width:15;stroke-linejoin:miter;stroke-miterlimit:4;stroke-opacity:1;display:inline"
       d="m 171.48754,460.19189 c 0,4.67706 3.76529,8.44235 8.44235,8.44235 l 205.82568,0 c 4.67706,0 8.44234,-3.76529 8.44234,-8.44235 l 0,-292.50245 c 0,-4.67706 -3.76528,-8.44235 -8.44234,-8.44235"
       id="rect5496-0-2-4-8-8"
       inkscape:connector-curvature="0"
       sodipodi:nodetypes="cssssc" />
    <rect
       style="fill:none;fill-opacity:0;stroke:#000000;stroke-width:15;stroke-linejoin:miter;stroke-miterlimit:4;stroke-opacity:1;stroke-dasharray:none;display:inline"
       id="rect5496-0-2-4-8"
       width="222.71037"
       height="309.38715"
       x="-389.81995"
       y="154.19633"
       ry="8.4423466"
       transform="scale(-1,1)" />
  </g>
</svg>
