<?xml version="1.0" encoding="UTF-8" standalone="no"?>
<!-- Created with Inkscape (http://www.inkscape.org/) -->

<svg
   xmlns:dc="http://purl.org/dc/elements/1.1/"
   xmlns:cc="http://creativecommons.org/ns#"
   xmlns:rdf="http://www.w3.org/1999/02/22-rdf-syntax-ns#"
   xmlns:svg="http://www.w3.org/2000/svg"
   xmlns="http://www.w3.org/2000/svg"
   xmlns:sodipodi="http://sodipodi.sourceforge.net/DTD/sodipodi-0.dtd"
   xmlns:inkscape="http://www.inkscape.org/namespaces/inkscape"
   width="744.09448819"
   height="1052.3622047"
   id="svg3905"
   version="1.1"
   inkscape:version="0.48.5 r10040"
   sodipodi:docname="pre.svg"
   inkscape:export-filename="/home/marcho/Documents/Projects/ManaClash/web/icons/post_full.png"
   inkscape:export-xdpi="3.8260012"
   inkscape:export-ydpi="3.8260012">
  <defs
     id="defs3907" />
  <sodipodi:namedview
     id="base"
     pagecolor="#ffffff"
     bordercolor="#666666"
     borderopacity="1.0"
     inkscape:pageopacity="0.0"
     inkscape:pageshadow="2"
     inkscape:zoom="1.0710938"
     inkscape:cx="78.010114"
     inkscape:cy="465.23705"
     inkscape:document-units="px"
     inkscape:current-layer="layer1"
     showgrid="false"
     inkscape:window-width="1920"
     inkscape:window-height="1014"
     inkscape:window-x="0"
     inkscape:window-y="27"
     inkscape:window-maximized="1" />
  <metadata
     id="metadata3910">
    <rdf:RDF>
      <cc:Work
         rdf:about="">
        <dc:format>image/svg+xml</dc:format>
        <dc:type
           rdf:resource="http://purl.org/dc/dcmitype/StillImage" />
        <dc:title></dc:title>
      </cc:Work>
    </rdf:RDF>
  </metadata>
  <g
     inkscape:label="Layer 1"
     inkscape:groupmode="layer"
     id="layer1">
    <path
       style="fill:#000000;fill-opacity:1;stroke:#000000;stroke-width:13;stroke-linecap:round;stroke-linejoin:round;stroke-miterlimit:4;stroke-opacity:1;stroke-dasharray:none"
       d="m 179.78125,320.40625 c 103.38319,0 187.1875,83.80431 187.1875,187.1875 0,103.38319 -83.80431,187.1875 -187.1875,187.1875 -11.98836,0 -23.70073,-1.12749 -35.0625,-3.28125 87.82479,-15.4408 154.5625,-92.12402 154.5625,-184.375 0,-91.39482 -65.50708,-167.48678 -152.125,-183.90625 10.59808,-1.86329 21.4928,-2.8125 32.625,-2.8125 z"
       id="path5202"
       inkscape:connector-curvature="0" />
    <path
       style="fill:#000000;fill-opacity:1;stroke:#000000;stroke-width:1px;stroke-linecap:butt;stroke-linejoin:miter;stroke-opacity:1"
       d="m 189.74591,503.93833 10,-9.99999 190.00002,0 -10e-6,-30 -10,-10.00001 16.49999,-19.99999 18.50001,20 -10.00001,9.99998 2e-5,30.00001 44.99999,10e-6 10.00001,-10.00001 19.99998,20.00001 -19.99999,19.99999 -10.00001,-10.00001 -44.99999,2e-5 0,29.99999 10,10.00001 -17.29809,19.99998 -17.70191,-19.99999 10.00001,-9.99999 -10e-6,-30.00002 -190.00001,0 z"
       id="path5741"
       inkscape:connector-curvature="0"
       sodipodi:nodetypes="ccccccccccccccccccccccc" />
  </g>
</svg>
